<?xml version="1.0" encoding="UTF-8"?>
<!DOCTYPE svg PUBLIC "-//W3C//DTD SVG 1.1//EN" "http://www.w3.org/Graphics/SVG/1.1/DTD/svg11.dtd">
<!-- Creator: CorelDRAW X7 -->
<svg xmlns="http://www.w3.org/2000/svg" xml:space="preserve" width="42.3334mm" height="42.3334mm" version="1.1" style="shape-rendering:geometricPrecision; text-rendering:geometricPrecision; image-rendering:optimizeQuality; fill-rule:evenodd; clip-rule:evenodd"
viewBox="0 0 76414 76414"
 xmlns:xlink="http://www.w3.org/1999/xlink">
 <defs>
  <style type="text/css">
   <![CDATA[
    .fil1 {fill:none}
    .fil0 {fill:#FEFEFE}
   ]]>
  </style>
   <clipPath id="id0">
    <path d="M38207 2900c19500,0 35308,15807 35308,35307 0,19500 -15808,35308 -35308,35308 -19500,0 -35307,-15808 -35307,-35308 0,-19500 15807,-35307 35307,-35307z"/>
   </clipPath>
 </defs>
 <g id="Слой_x0020_1">
  <metadata id="CorelCorpID_0Corel-Layer"/>
  <circle class="fil0" cx="38548" cy="34284" r="9381"/>
  <g>
  </g>
  <g style="clip-path:url(#id0)">
   <g>
    <rect class="fil0" x="22394" y="47842" width="31360" height="28485" rx="7819" ry="11940"/>
   </g>
  </g>
  <path class="fil1" d="M38207 2900c19500,0 35308,15807 35308,35307 0,19500 -15808,35308 -35308,35308 -19500,0 -35307,-15808 -35307,-35308 0,-19500 15807,-35307 35307,-35307z"/>
  <path class="fil0" d="M38207 0c21101,0 38207,17106 38207,38207 0,21101 -17106,38207 -38207,38207 -21101,0 -38207,-17106 -38207,-38207 0,-21101 17106,-38207 38207,-38207zm0 5799c17898,0 32408,14510 32408,32408 0,17898 -14510,32408 -32408,32408 -17898,0 -32408,-14510 -32408,-32408 0,-17898 14510,-32408 32408,-32408z"/>
 </g>
</svg>
