<?xml version="1.0" encoding="UTF-8"?>
<!DOCTYPE svg PUBLIC "-//W3C//DTD SVG 1.1//EN" "http://www.w3.org/Graphics/SVG/1.1/DTD/svg11.dtd">
<!-- Creator: CorelDRAW X7 -->
<svg xmlns="http://www.w3.org/2000/svg" xml:space="preserve" width="42.3336mm" height="85.8262mm" version="1.1" style="shape-rendering:geometricPrecision; text-rendering:geometricPrecision; image-rendering:optimizeQuality; fill-rule:evenodd; clip-rule:evenodd"
viewBox="0 0 930775 1887033"
 xmlns:xlink="http://www.w3.org/1999/xlink">
 <defs>
  <style type="text/css">
   <![CDATA[
    .fil0 {fill:#FEFEFE}
   ]]>
  </style>
 </defs>
 <g id="Слой_x0020_1">
  <metadata id="CorelCorpID_0Corel-Layer"/>
  <path class="fil0" d="M165564 32204l733799 840373c17779,15925 28097,37263 30669,59432l38 345 204 1922c3034,29541 -7757,60096 -31691,80985l0 0 -130 117 -733005 839452c-34137,39105 -94145,43175 -133251,9025l0 0c-39103,-34152 -43162,-94147 -9023,-133250l687334 -787152 -687220 -787024c-34149,-39104 -30080,-99099 9026,-133251l0 0c39103,-34149 99111,-30080 133250,9026z"/>
 </g>
</svg>
