<?xml version="1.0" encoding="UTF-8"?>
<!DOCTYPE svg PUBLIC "-//W3C//DTD SVG 1.1//EN" "http://www.w3.org/Graphics/SVG/1.1/DTD/svg11.dtd">
<!-- Creator: CorelDRAW X7 -->
<svg xmlns="http://www.w3.org/2000/svg" xml:space="preserve" width="42.3336mm" height="85.8262mm" version="1.1" style="shape-rendering:geometricPrecision; text-rendering:geometricPrecision; image-rendering:optimizeQuality; fill-rule:evenodd; clip-rule:evenodd"
viewBox="0 0 74203 150437"
 xmlns:xlink="http://www.w3.org/1999/xlink">
 <defs>
  <style type="text/css">
   <![CDATA[
    .fil0 {fill:#FEFEFE}
   ]]>
  </style>
 </defs>
 <g id="Слой_x0020_1">
  <metadata id="CorelCorpID_0Corel-Layer"/>
  <path class="fil0" d="M61004 2567l-58500 66996c-1417,1269 -2240,2971 -2445,4738l-3 27 -16 154c-242,2355 618,4791 2526,6456l0 0 11 9 58436 66922c2721,3118 7505,3442 10623,720l0 0c3117,-2723 3441,-7506 719,-10623l-54795 -62753 54786 -62742c2722,-3118 2398,-7901 -720,-10623l0 0c-3117,-2723 -7901,-2398 -10622,719z"/>
 </g>
</svg>
